<svg width="158" height="168" fill="none" xmlns="http://www.w3.org/2000/svg">
<g clip-path="url(#clip0_9_38)">
<path d="M14.8435 75.5938C8.66274 75.5938 8.14672 75.5938 4.54112 75.5938C0.935523 75.5938 -2.15569 80.7552 1.96593 84.8856C6.08787 89.0144 8.14868 92.1119 8.14868 92.1119L14.8435 75.5938Z" fill="#F5BAAD"/>
<path d="M158.053 99.8563C157.144 104.413 154.516 118.234 153.417 121.538C151.357 127.734 149.202 129.476 145.305 131.991C143.161 133.375 140.986 134.684 138.774 135.959L148.28 91.305C153.432 93.2876 159.037 94.9206 158.053 99.8563Z" fill="#F5BAAD"/>
<path d="M147.57 91.035C139.356 87.7751 137.448 77.3355 129.024 65.48C122.155 55.7941 109.908 46.5321 93.4033 42.7931C89.3073 41.8563 84.9577 41.2663 80.3515 41.0878C76.5462 40.9431 72.8981 40.9792 69.4008 41.1771C59.1155 41.7582 50.147 43.7601 42.4047 46.7877C13.8765 57.9383 1.96777 83.0589 1.96777 102.641C1.96777 116.177 6.79074 127.498 14.3077 136.328L14.0677 136.249C16.9042 139.864 26.3399 153.106 28.643 159.223H50.9033V157.164C54.5279 157.884 58.159 158.303 61.7221 158.395C64.2973 158.465 66.8617 158.429 69.4005 158.322C75.6939 158.058 81.8151 157.307 87.475 156.283V159.223H111.197C112.682 155.522 114.745 150.659 116.87 147.153C124.835 143.373 132.006 139.858 138.776 135.964L148.279 91.3047C148.042 91.2115 147.802 91.1265 147.57 91.035Z" fill="#FADFDC"/>
<path d="M109.116 164.387C108.085 166.452 106.538 168 101.902 168C97.266 168 94.6912 168 91.5996 168C88.5104 168 87.48 164.902 87.48 161.289C87.48 160.738 87.48 160.029 87.48 159.223H111.198C110.172 161.776 109.42 163.778 109.116 164.387Z" fill="#F5BAAD"/>
<path d="M101.902 164.129C104.356 164.129 105.032 163.699 105.419 163.097H91.4766C91.5617 163.601 91.674 163.936 91.7634 164.129H101.902Z" fill="#F5BAAD"/>
<path d="M50.9036 161.289C50.9036 164.902 49.9367 168 47.0364 168C44.136 168 41.7183 168 37.3672 168C33.0177 168 31.5669 166.452 30.6 164.387C30.3132 163.778 29.6079 161.776 28.6453 159.223H50.9036C50.9036 160.028 50.9036 160.737 50.9036 161.289Z" fill="#F5BAAD"/>
<path d="M46.6648 164.129C46.7477 163.912 46.8433 163.576 46.9176 163.097H34.2715C34.6179 163.729 35.1385 164.129 37.3673 164.129H46.6648Z" fill="#F5BAAD"/>
<path d="M108.922 135.606C116.355 135.606 122.38 129.568 122.38 122.119C122.38 114.671 116.355 108.633 108.922 108.633C101.49 108.633 95.4646 114.671 95.4646 122.119C95.4646 129.568 101.49 135.606 108.922 135.606Z" fill="#F3A7A8"/>
<path d="M113.495 98.4362C113.495 103.783 117.818 108.116 123.154 108.116C128.486 108.116 132.812 103.783 132.812 98.4362C132.812 93.092 128.486 88.7568 123.154 88.7568C117.819 88.7568 113.495 93.0917 113.495 98.4362Z" fill="white"/>
<path d="M115.656 95.7278C115.656 99.2348 118.494 102.077 121.993 102.077C125.493 102.077 128.331 99.2345 128.331 95.7278C128.331 92.2189 125.493 89.3763 121.993 89.3763C118.494 89.3763 115.656 92.2189 115.656 95.7278Z" fill="#604C3F"/>
<path d="M42.405 46.7877V50.8138H42.7279C51.7707 47.105 62.6873 44.8668 75.7156 44.8668C77.1922 44.8668 78.6987 44.8967 80.2052 44.9607C84.7413 45.131 89.1606 45.7485 93.4037 46.7706V42.7931C89.3073 41.8563 84.9581 41.2663 80.3519 41.0875C65.3539 40.5149 52.7818 42.7291 42.405 46.7877Z" fill="#CBAA9E"/>
<path d="M21.989 86.7234L20.6907 86.3615L21.972 86.7809L21.989 86.7234L20.6907 86.3615L21.972 86.7809L21.6809 86.685L21.9697 86.7874L21.972 86.7809L21.6809 86.685L21.9697 86.7874C21.972 86.7809 22.0185 86.6552 22.1055 86.4721C22.267 86.1253 22.5561 85.5737 22.9451 84.9178C23.6313 83.7637 24.6277 82.2796 25.8644 80.6892C27.7212 78.3001 30.1307 75.6663 32.8673 73.4071C35.6017 71.1395 38.6572 69.2659 41.7657 68.2375C44.2473 67.4113 45.592 64.7243 44.7676 62.2351C43.9431 59.746 41.2618 58.3984 38.7803 59.2246C34.9835 60.4892 31.5904 62.4566 28.5987 64.6948C24.1136 68.0587 20.51 72.0405 17.871 75.5304C16.5518 77.2807 15.4785 78.9052 14.6543 80.3125C14.2441 81.0196 13.8937 81.669 13.6004 82.2823C13.454 82.591 13.3198 82.889 13.1967 83.1958C13.0755 83.5045 12.9629 83.8153 12.8588 84.188C12.1597 86.7133 13.6364 89.3301 16.1605 90.0306C18.681 90.7305 21.2899 89.2487 21.989 86.7234Z" fill="white"/>
<path d="M99.2591 56.0135C101.709 52.1915 104.649 45.3974 108.077 42.8485C111.506 40.3023 117.871 42.8485 117.871 46.6725C117.871 50.4945 117.871 57.289 117.871 61.1106C117.871 64.9326 107.097 67.0556 101.22 64.9326C95.3414 62.81 99.2591 56.0135 99.2591 56.0135Z" fill="#F5BAAD"/>
<path d="M96.4461 27.1028C96.4461 32.7859 94.6912 38.0684 91.7018 42.4269C90.8668 43.6449 89.932 44.79 88.9121 45.8591C86.0691 45.3692 83.1625 45.067 80.203 44.9607C80.033 44.9521 79.8631 44.9436 79.6931 44.9436C78.3566 44.8901 77.0204 44.8668 75.7136 44.8668C73.5507 44.8668 71.4493 44.9285 69.4012 45.0522L60.9789 45.906C57.796 46.3765 54.7729 46.996 51.8981 47.7478C50.7783 46.7962 49.7351 45.7419 48.7768 44.6197C44.7674 39.8885 42.356 33.7778 42.356 27.1025C42.356 12.1577 54.488 -0.000335693 69.4012 -0.000335693C84.3144 -7.56836e-06 96.4461 12.158 96.4461 27.1028Z" fill="#E7BE56"/>
<path d="M89.97 27.1028C89.97 32.6327 87.7986 37.6425 84.2611 41.3431C82.9222 42.7527 81.3863 43.9684 79.6932 44.9436C78.3566 44.8901 77.0204 44.8668 75.7137 44.8668C73.5507 44.8668 71.4493 44.9285 69.4012 45.0522L60.9789 45.906C59.2088 45.1139 57.5711 44.077 56.1091 42.8315C55.8861 42.6441 55.6694 42.4525 55.4526 42.2481C55.4376 42.2353 55.4228 42.2185 55.4058 42.2034C54.4095 41.2732 53.4979 40.2508 52.7033 39.1351C52.5183 38.8881 52.3464 38.6242 52.1764 38.3686C51.9299 37.9982 51.6984 37.6107 51.4816 37.2232C51.3582 37.0059 51.2351 36.7825 51.1267 36.559C51.0799 36.4822 51.0331 36.395 51.0036 36.3182C50.8802 36.0777 50.7636 35.8391 50.6552 35.5966C50.5233 35.3112 50.4002 35.0257 50.2918 34.732C50.2152 34.5529 50.1451 34.3658 50.0835 34.187C49.9666 33.8717 49.8583 33.5524 49.7584 33.2289C49.7031 33.0734 49.6585 32.9182 49.6202 32.7561C49.5734 32.6091 49.5351 32.4624 49.4948 32.3069C49.4886 32.2918 49.4801 32.2747 49.4801 32.2534C49.4182 32.0362 49.3717 31.8189 49.3249 31.5935C49.2866 31.4488 49.2568 31.291 49.2335 31.1377C49.1929 30.9888 49.1631 30.8441 49.1484 30.6885V30.682C49.1166 30.5032 49.0868 30.3329 49.0633 30.154C49.0315 29.9834 49.0083 29.8131 48.9932 29.6428C48.9614 29.4256 48.9379 29.2084 48.9231 28.9915C48.9169 28.9616 48.9084 28.9232 48.9169 28.8848C48.8848 28.6591 48.8701 28.4422 48.8616 28.2164C48.838 27.846 48.8318 27.4752 48.8318 27.1028C48.8318 15.7201 58.0422 6.48965 69.4009 6.48965C69.7729 6.48965 70.1422 6.49819 70.5142 6.51951C70.7375 6.52805 70.9542 6.54511 71.1772 6.57497C71.2155 6.56644 71.2558 6.57497 71.2856 6.5835C71.464 6.59629 71.6425 6.61336 71.8189 6.63665C71.851 6.63665 71.8743 6.63665 71.9041 6.64322C72.0976 6.66881 72.2908 6.68981 72.4839 6.72197C72.5072 6.72197 72.537 6.7282 72.5606 6.73673C72.6454 6.74526 72.7239 6.76036 72.8091 6.77512C72.8327 6.77512 72.8474 6.77512 72.8706 6.78365C73.0471 6.80695 73.219 6.84534 73.3889 6.88603C73.5569 6.90736 73.7206 6.94542 73.882 6.98381C74.1073 7.03073 74.3241 7.07765 74.5405 7.14131C74.5618 7.14131 74.5788 7.14755 74.5935 7.15378C74.7487 7.19447 74.8954 7.23286 75.0418 7.27748C75.2032 7.31784 75.3584 7.36476 75.5136 7.41792C75.8364 7.5203 76.1554 7.62661 76.4716 7.74375C76.6481 7.80576 76.8351 7.87598 77.0116 7.95244C77.3282 8.07811 77.6448 8.20805 77.9546 8.35504C78.1693 8.44889 78.3861 8.5575 78.5963 8.66611C78.6726 8.69597 78.7577 8.74256 78.834 8.78948C79.0593 8.89809 79.2823 9.0218 79.499 9.14517C79.5927 9.19209 79.6775 9.24525 79.7688 9.3007C79.924 9.38601 80.0707 9.47953 80.2174 9.57337C80.2812 9.61176 80.3428 9.65015 80.4043 9.69675C80.4895 9.75023 80.5808 9.80339 80.6656 9.85884C80.7828 9.9353 80.8974 10.0121 81.014 10.0971C81.0906 10.144 81.1607 10.1909 81.2308 10.2546C81.3922 10.3523 81.5559 10.478 81.7173 10.6017C81.8087 10.6634 81.9023 10.7402 81.9956 10.8104C82.3738 11.1064 82.7454 11.4151 83.1004 11.7321C83.3404 11.9408 83.5637 12.158 83.7886 12.3838C84.0201 12.6072 84.2434 12.8307 84.4601 13.0715C84.4834 13.0863 84.4985 13.1122 84.5132 13.1247C87.9007 16.8036 89.97 21.7055 89.97 27.1028Z" fill="#FBE4AD"/>
<path d="M49.9972 28.2723C49.9972 16.8873 59.2076 7.65714 70.5683 7.65714C75.9501 7.65714 80.8497 9.73286 84.5146 13.125C80.758 9.04544 75.3785 6.49033 69.4016 6.49033C58.041 6.49033 48.8325 15.7185 48.8325 27.1035C48.8325 33.0931 51.3822 38.4845 55.453 42.2487C52.0685 38.5757 49.9972 33.6676 49.9972 28.2723Z" fill="#D4A948"/>
<path d="M78.1313 18.4987C78.04 18.4072 77.9401 18.3133 77.8465 18.2218C77.8232 18.1962 77.8085 18.1834 77.7934 18.1663C76.3168 16.8505 74.3388 16.0286 72.1971 16.0371H64.425C63.69 16.0371 62.9716 16.3311 62.4471 16.8591C61.9288 17.3765 61.6272 18.0984 61.6272 18.8393V39.3993C61.6272 40.0122 61.8204 40.5851 62.1606 41.0429C62.3626 41.3283 62.6173 41.5666 62.9104 41.7542C63.3439 42.0394 63.8684 42.2034 64.4254 42.2034C65.1968 42.2034 65.885 41.8947 66.3952 41.39L66.4037 41.3835C66.9138 40.8726 67.2216 40.1743 67.2216 39.3993V32.8561H72.1974C74.5091 32.8561 76.6252 31.9131 78.1317 30.3926C79.6467 28.8766 80.59 26.7622 80.59 24.4479C80.5897 22.1311 79.6463 20.0104 78.1313 18.4987ZM74.1751 22.4631C74.6852 22.9743 74.9953 23.6641 74.9953 24.4476C74.9953 25.2292 74.6849 25.9104 74.1751 26.4278C73.6587 26.9387 72.979 27.2495 72.1971 27.2495H67.2212V21.6435H72.1971C72.8238 21.6435 73.3889 21.8459 73.8522 22.195C73.9672 22.2715 74.0752 22.363 74.1751 22.4631Z" fill="#D4A948"/>
<path d="M77.8469 18.2218C77.8237 18.1962 77.8089 18.1834 77.7939 18.1663C77.7006 18.0662 77.6069 17.9662 77.5156 17.8723C76.0006 16.3544 73.8825 15.411 71.5813 15.411H63.807C63.0719 15.411 62.345 15.7113 61.829 16.2307C61.3022 16.7567 61.0088 17.4763 61.0088 18.2132V38.7732C61.0088 39.7015 61.457 40.532 62.1603 41.0429C62.6256 41.3834 63.1888 41.5836 63.807 41.5836C65.3517 41.5836 66.6032 40.321 66.6032 38.7732V32.2363H71.5813C73.8821 32.2363 76.0006 31.291 77.5156 29.775C79.0283 28.2568 79.9716 26.1342 79.9716 23.8196C79.9716 21.6818 79.1599 19.7078 77.8469 18.2218ZM66.6032 21.0154H71.5813C72.3613 21.0239 73.041 21.3262 73.5573 21.837C73.6657 21.9457 73.7675 22.069 73.8527 22.1947C74.184 22.6505 74.3775 23.2083 74.3775 23.8192C74.3775 24.6094 74.0694 25.2906 73.5577 25.81C73.0413 26.3209 72.3616 26.6234 71.5817 26.6296H69.4017L67.222 26.6234H66.6038V21.0154H66.6032Z" fill="#E7BE56"/>
<path opacity="0.22" d="M69.4012 0V45.0522L60.9789 45.906C57.796 46.3765 54.7729 46.996 51.8981 47.7478C50.7783 46.7962 49.7351 45.7419 48.7768 44.6198C44.7674 39.8885 42.356 33.7778 42.356 27.1025C42.356 12.158 54.488 0 69.4012 0Z" fill="white"/>
</g>
<defs>
<clipPath id="clip0_9_38">
<rect width="158" height="168" fill="white"/>
</clipPath>
</defs>
</svg>
