<svg width="41" height="41" viewBox="0 0 41 41" fill="none" xmlns="http://www.w3.org/2000/svg">
<circle cx="20.5" cy="20.5" r="19" stroke="#499A3B" stroke-width="3"/>
<path d="M11 28.925C11 25.4132 14.1679 22.508 18.2889 22.0248M30.2823 23.153C30.1994 23.1571 30.116 23.1591 30.0321 23.1591C28.7876 23.1591 27.6523 22.7035 26.7926 21.9542C25.9329 22.7035 24.7976 23.159 23.553 23.159C23.4692 23.159 23.3858 23.157 23.3029 23.1529C23.2018 23.5329 23.1481 23.9314 23.1481 24.3421C23.1481 26.5471 24.6968 28.3997 26.7926 28.925C28.8884 28.3997 30.437 26.5471 30.437 24.3421C30.437 23.9314 30.3833 23.5329 30.2823 23.153ZM24.363 14.9833C24.363 17.1833 22.1874 18.9667 19.5037 18.9667C16.82 18.9667 14.6444 17.1833 14.6444 14.9833C14.6444 12.7834 16.82 11 19.5037 11C22.1874 11 24.363 12.7834 24.363 14.9833Z" stroke="#499A3B" stroke-width="3" stroke-linecap="round" stroke-linejoin="round"/>
</svg>
